<?xml version="1.0" standalone="no"?>
<!DOCTYPE svg PUBLIC "-//W3C//DTD SVG 1.1//EN" "http://www.w3.org/Graphics/SVG/1.1/DTD/svg11.dtd" >
<svg>
<metadata>
Created by FontForge 20110222 at Mon Mar  7 13:35:43 2011
 By www-data
Created by Sizenko Alexander. (c) 2008 Style-7. All rights reserved.
</metadata>
<defs>
<font id="http:" horiz-adv-x="455" >
  <font-face 
    font-family="Digital-7 Mono"
    font-weight="400"
    font-stretch="normal"
    units-per-em="1000"
    panose-1="2 0 5 9 0 0 0 0 0 0"
    ascent="800"
    descent="-200"
    x-height="645"
    cap-height="655"
    bbox="0 -109 455 764"
    underline-thickness="64"
    underline-position="-141"
    unicode-range="U+0020-2030"
  />
    <missing-glyph />
    <glyph glyph-name="space" unicode=" " 
 />
    <glyph glyph-name="exclam" unicode="!" 
d="M245 318l19 -18v-155h-73v119zM191 391v191l27 73c24 -7 40 -22 46 -46v-254l-19 -19zM264 0h-73v73h73v-73z" />
    <glyph glyph-name="quotedbl" unicode="&#x22;" 
d="M200 509l-36 -36l-37 36v146h73v-146zM346 510l-36 -36l-36 36v145h72v-145z" />
    <glyph glyph-name="numbersign" unicode="#" 
d="M245 436l37 -36l-37 -36h-36l-36 36l36 36h36zM245 291l37 -36l-37 -37h-36l-36 37l36 36h36zM118 345l37 37l36 -37v-36l-36 -36l-37 36v36zM264 345l36 37l36 -37v-36l-36 -36l-36 36v36zM118 509l37 36l36 -36v-54l-36 -37l-37 37v54zM264 509l36 36l36 -36v-54
l-36 -37l-36 37v54zM264 201l36 36l36 -36v-56l-36 -36l-36 36v56zM118 200l37 36l36 -36v-55l-36 -37l-37 37v55zM100 291l36 -36l-36 -37h-36l-37 37l37 36h36zM391 290l36 -36l-36 -37h-36l-37 37l37 36h36zM391 436l36 -36l-36 -36h-36l-37 36l37 36h36zM100 435l36 -36
l-36 -36h-36l-37 36l37 36h36z" />
    <glyph glyph-name="dollar" unicode="$" 
d="M345 364l37 -37l-37 -36h-236l-36 36l36 37h236zM400 318l18 -18v-255c-6 -24 -21 -39 -45 -45l-28 73v191zM355 0h-273c-24 6 -40 21 -46 45l73 28h218zM109 564v-173l-54 -55l-19 19v236zM110 582l-73 27c6 24 21 39 46 46h290c24 -7 39 -22 45 -46l-73 -27h-235z
M200 682v45l36 37l37 -37v-45h-73zM200 391v164h73v-164h-73zM200 100v164h73v-164h-73zM273 -27v-46l-37 -36l-36 36v46h73z" />
    <glyph glyph-name="percent" unicode="%" 
d="M237 435l108 220c37 0 61 -13 73 -37l-140 -282h-41v99zM217 220l-108 -220c-36 0 -61 12 -73 36l140 282h41v-98zM127 582h-54l-73 27c6 24 21 39 45 46h110zM73 564v-55l-28 -73c-24 6 -39 22 -45 46v109zM91 509h54l73 -27c-6 -24 -21 -40 -45 -46h-109zM145 527v55
l28 73c24 -7 39 -22 45 -46v-109zM382 91v54l27 73c24 -6 39 -21 46 -45v-109zM364 145h-55l-73 28c6 24 22 39 46 45h109zM309 127v-54l-27 -73c-24 6 -40 21 -46 45v110zM327 73h55l73 -28c-7 -24 -22 -39 -46 -45h-109z" />
    <glyph glyph-name="ampersand" unicode="&#x26;" 
d="M345 364l37 -37l-37 -36h-236l-36 36l36 37h236zM400 318l18 -18v-209h-45l-28 27v146zM436 0h-354c-24 6 -40 21 -46 45l73 28h291l55 -55zM36 64v236l19 18l54 -54v-173zM291 545h-146l-72 28c6 24 21 39 45 45h200zM145 527v-100l-54 -54l-18 18v164zM309 427v118
l27 73c25 -6 40 -21 46 -45v-182l-18 -18zM418 -18v-46l-18 -18l-55 55v9h73z" />
    <glyph glyph-name="quotesingle" unicode="'" 
d="M273 509l-37 -36l-36 36v146h73v-146z" />
    <glyph glyph-name="parenleft" unicode="(" 
d="M227 582h-100l-36 36l36 37h100l37 -37zM55 336l-19 19v209l46 45l27 -27v-191zM264 36l-37 -36h-100l-36 36l36 37h100zM109 264v-191l-27 -28l-46 46v209l19 18z" />
    <glyph glyph-name="parenright" unicode=")" 
d="M209 73h100l36 -37l-36 -36h-100l-36 36zM382 318l18 -18v-209l-45 -46l-28 28v191zM173 618l36 37h100l36 -37l-36 -36h-100zM327 391v191l28 27l45 -45v-209l-18 -19z" />
    <glyph glyph-name="asterisk" unicode="*" 
d="M191 391v73l36 36l37 -36v-73l63 36l50 -13l-13 -50l-63 -37l63 -36l13 -50l-50 -14l-63 37v-73l-37 -36l-36 36v73l-64 -37l-50 14l14 50l63 36l-63 37l-14 50l50 13z" />
    <glyph glyph-name="plus" unicode="+" 
d="M191 364v81l36 37l37 -37v-81h81l37 -37l-37 -36h-81v-82l-37 -36l-36 36v82h-82l-36 36l36 37h82z" />
    <glyph glyph-name="comma" unicode="," 
d="M264 -73l-37 -36l-36 36v146h73v-146z" />
    <glyph glyph-name="hyphen" unicode="-" 
d="M345 364l37 -37l-37 -36h-236l-36 36l36 37h236z" />
    <glyph glyph-name="period" unicode="." 
d="M264 0h-73v73h73v-73z" />
    <glyph glyph-name="slash" unicode="/" 
d="M237 435l108 220c37 0 61 -13 73 -37l-140 -282h-41v99zM217 220l-108 -220c-36 0 -61 12 -73 36l140 282h41v-98z" />
    <glyph glyph-name="zero" unicode="0" 
d="M400 318l18 -18v-255c-6 -24 -21 -39 -45 -45l-28 73v191zM355 0h-273c-24 6 -40 21 -46 45l73 28h218zM36 64v236l19 18l54 -54v-173zM327 582h-217l-73 27c6 24 21 39 46 46h272zM109 564v-173l-54 -55l-19 19v236zM345 391v191l28 73c24 -7 39 -22 45 -46v-254
l-18 -19z" />
    <glyph glyph-name="one" unicode="1" 
d="M400 318l18 -18v-255c-6 -24 -21 -39 -45 -45l-28 73v191zM345 391v191l28 73c24 -7 39 -22 45 -46v-254l-18 -19z" />
    <glyph glyph-name="two" unicode="2" 
d="M345 364l37 -37l-37 -36h-236l-36 36l36 37h236zM382 0h-300c-24 6 -40 21 -46 45l73 28h246zM36 64v236l19 18l54 -54v-173zM327 582h-217l-73 27c6 24 21 39 46 46h272zM345 391v191l28 73c24 -7 39 -22 45 -46v-254l-18 -19z" />
    <glyph glyph-name="three" unicode="3" 
d="M345 364l37 -37l-37 -36h-236l-36 36l36 37h236zM400 318l18 -18v-255c-6 -24 -21 -39 -45 -45l-28 73v191zM355 0h-273c-24 6 -40 21 -46 45l73 28h218zM327 582h-217l-73 27c6 24 21 39 46 46h272zM345 391v191l28 73c24 -7 39 -22 45 -46v-254l-18 -19z" />
    <glyph glyph-name="four" unicode="4" 
d="M345 364l37 -37l-37 -36h-236l-36 36l36 37h236zM400 318l18 -18v-255c-6 -24 -21 -39 -45 -45l-28 73v191zM109 591v-200l-54 -55l-19 19v263zM345 391v191l28 73c24 -7 39 -22 45 -46v-254l-18 -19z" />
    <glyph glyph-name="five" unicode="5" 
d="M345 364l37 -37l-37 -36h-236l-36 36l36 37h236zM400 318l18 -18v-255c-6 -24 -21 -39 -45 -45l-28 73v191zM355 0h-273c-24 6 -40 21 -46 45l73 28h218zM355 582h-245l-73 27c6 24 21 39 46 46h299zM109 564v-173l-54 -55l-19 19v236z" />
    <glyph glyph-name="six" unicode="6" 
d="M345 364l37 -37l-37 -36h-236l-36 36l36 37h236zM400 318l18 -18v-255c-6 -24 -21 -39 -45 -45l-28 73v191zM355 0h-273c-24 6 -40 21 -46 45l73 28h218zM36 64v236l19 18l54 -54v-173zM355 582h-245l-73 27c6 24 21 39 46 46h299zM109 564v-173l-54 -55l-19 19v236z" />
    <glyph glyph-name="seven" unicode="7" 
d="M400 318l18 -18v-255c-6 -24 -21 -39 -45 -45l-28 73v191zM327 582h-217l-73 27c6 24 21 39 46 46h272zM109 564v-173l-54 -55l-19 19v236zM345 391v191l28 73c24 -7 39 -22 45 -46v-254l-18 -19z" />
    <glyph glyph-name="eight" unicode="8" 
d="M345 364l37 -37l-37 -36h-236l-36 36l36 37h236zM400 318l18 -18v-255c-6 -24 -21 -39 -45 -45l-28 73v191zM355 0h-273c-24 6 -40 21 -46 45l73 28h218zM36 64v236l19 18l54 -54v-173zM327 582h-217l-73 27c6 24 21 39 46 46h272zM109 564v-173l-54 -55l-19 19v236z
M345 391v191l28 73c24 -7 39 -22 45 -46v-254l-18 -19z" />
    <glyph glyph-name="nine" unicode="9" 
d="M345 364l37 -37l-37 -36h-236l-36 36l36 37h236zM400 318l18 -18v-255c-6 -24 -21 -39 -45 -45l-28 73v191zM355 0h-273c-24 6 -40 21 -46 45l73 28h218zM327 582h-217l-73 27c6 24 21 39 46 46h272zM109 564v-173l-54 -55l-19 19v236zM345 391v191l28 73
c24 -7 39 -22 45 -46v-254l-18 -19z" />
    <glyph glyph-name="colon" unicode=":" 
d="M264 145h-73v73h73v-73zM264 436h-73v73h73v-73z" />
    <glyph glyph-name="semicolon" unicode=";" 
d="M264 436h-73v73h73v-73zM264 -73l-37 -36l-36 36v146h73v-146z" />
    <glyph glyph-name="less" unicode="&#x3c;" 
d="M191 336h-100l182 182h36l27 -35zM336 172l-27 -36h-36l-182 182h100z" />
    <glyph glyph-name="equal" unicode="=" 
d="M345 436l37 -36l-37 -36h-236l-36 36l36 36h236zM345 290l37 -36l-37 -37h-236l-36 37l36 36h236z" />
    <glyph glyph-name="greater" unicode="&#x3e;" 
d="M91 483l27 35h37l181 -182h-100zM236 318h100l-181 -182h-37l-27 36z" />
    <glyph glyph-name="question" unicode="?" 
d="M345 364l37 -37l-37 -36h-236l-36 36l36 37h236zM36 145v155l19 18l54 -54v-119h-73zM327 582h-217l-73 27c6 24 21 39 46 46h272zM345 391v191l28 73c24 -7 39 -22 45 -46v-254l-18 -19zM109 0h-73v73h73v-73z" />
    <glyph glyph-name="at" unicode="@" 
d="M400 318l18 -18v-109c-6 -24 -21 -39 -45 -46l-28 73v46zM355 0h-273c-24 6 -40 21 -46 45l73 28h218zM36 64v236l19 18l54 -54v-173zM327 582h-217l-73 27c6 24 21 39 46 46h272zM109 564v-173l-54 -55l-19 19v236zM345 391v191l28 73c24 -7 39 -22 45 -46v-254l-18 -19
zM355 145h-128c-24 6 -39 21 -45 45l73 28h72zM182 209v91l18 18l55 -54v-28zM255 418v-27l-55 -55l-18 19v90zM327 436h-72l-73 29c6 24 21 39 45 45l100 -1v-73z" />
    <glyph glyph-name="A" unicode="A" 
d="M345 364l37 -37l-37 -36h-236l-36 36l36 37h236zM400 318l18 -18v-255c-6 -24 -21 -39 -45 -45l-28 73v191zM327 582h-217l-73 27c6 24 21 39 46 46h272zM109 564v-173l-54 -55l-19 19v236zM345 391v191l28 73c24 -7 39 -22 45 -46v-254l-18 -19zM109 264v-191l-27 -73
c-24 6 -40 21 -46 45v255l19 18z" />
    <glyph glyph-name="B" unicode="B" 
d="M345 364l37 -37l-37 -36h-236l-36 36l36 37h236zM36 64v236l19 18l54 -54v-173zM327 582h-218l-73 27v46h291l37 -37zM109 564v-173l-54 -55l-19 19v236zM345 391v191l28 27l45 -45v-209l-18 -19zM400 318l18 -18v-209l-45 -46l-28 28v191zM363 36l-37 -36h-290v45l73 28
h217z" />
    <glyph glyph-name="C" unicode="C" 
d="M382 0h-300c-24 6 -40 21 -46 45l73 28h246zM36 64v236l19 18l54 -54v-173zM355 582h-245l-73 27c6 24 21 39 46 46h299zM109 564v-173l-54 -55l-19 19v236z" />
    <glyph glyph-name="D" unicode="D" 
d="M36 64v236l19 18l54 -54v-173zM327 582h-218l-73 27v46h291l37 -37zM109 564v-173l-54 -55l-19 19v236zM345 391v191l28 27l45 -45v-209l-18 -19zM400 318l18 -18v-209l-45 -46l-28 28v191zM363 36l-37 -36h-290v45l73 28h217z" />
    <glyph glyph-name="E" unicode="E" 
d="M345 364l37 -37l-37 -36h-236l-36 36l36 37h236zM382 0h-300c-24 6 -40 21 -46 45l73 28h246zM36 64v236l19 18l54 -54v-173zM355 582h-245l-73 27c6 24 21 39 46 46h299zM109 564v-173l-54 -55l-19 19v236z" />
    <glyph glyph-name="F" unicode="F" 
d="M345 364l37 -37l-37 -36h-236l-36 36l36 37h236zM355 582h-245l-73 27c6 24 21 39 46 46h299zM109 564v-173l-54 -55l-19 19v236zM109 264v-191l-27 -73c-24 6 -40 21 -46 45v255l19 18z" />
    <glyph glyph-name="G" unicode="G" 
d="M345 364l37 -37l-37 -36h-81l-37 36l37 37h81zM400 318l18 -18v-255c-6 -24 -21 -39 -45 -45l-28 73v191zM355 0h-273c-24 6 -40 21 -46 45l73 28h218zM36 64v236l19 18l54 -54v-173zM355 582h-245l-73 27c6 24 21 39 46 46h299zM109 564v-173l-54 -55l-19 19v236z" />
    <glyph glyph-name="H" unicode="H" 
d="M345 364l37 -37l-37 -36h-236l-36 36l36 37h236zM400 318l18 -18v-255c-6 -24 -21 -39 -45 -45l-28 73v191zM345 391v191l28 73c24 -7 39 -22 45 -46v-254l-18 -19zM109 264v-191l-27 -73c-24 6 -40 21 -46 45v255l19 18zM55 327l-19 18v255c6 24 22 39 46 45l27 -72
v-191z" />
    <glyph glyph-name="I" unicode="I" 
d="M182 391v191l27 73c24 -7 39 -22 46 -46v-254l-19 -19zM236 327l19 -18v-254c-7 -25 -22 -40 -46 -46l-27 73v191z" />
    <glyph glyph-name="J" unicode="J" 
d="M400 318l18 -18v-255c-6 -24 -21 -39 -45 -45l-28 73v191zM355 0h-273c-24 6 -40 21 -46 45l73 28h218zM36 64v236l19 18l54 -54v-173zM345 391v191l28 73c24 -7 39 -22 45 -46v-254l-18 -19z" />
    <glyph glyph-name="K" unicode="K" 
d="M345 364l37 -37l-37 -36h-236l-36 36l36 37h236zM400 318l18 -18v-255c-6 -24 -21 -39 -45 -45l-28 73v191zM127 436l218 219c37 0 61 -13 73 -37l-236 -236h-55v54zM109 264v-191l-27 -73c-24 6 -40 21 -46 45v255l19 18zM55 336l-19 19v254c6 24 22 39 46 46l27 -73
v-191z" />
    <glyph glyph-name="L" unicode="L" 
d="M109 264v-191l-27 -73c-24 6 -40 21 -46 45v255l19 18zM127 73h218l73 -28c-6 -24 -21 -39 -45 -45h-273zM55 336l-19 19v254c6 24 22 39 46 46l27 -73v-191z" />
    <glyph glyph-name="M" unicode="M" 
d="M264 355l-37 -37l-36 37v209h73v-209zM400 318l18 -18v-255c-6 -24 -21 -39 -45 -45l-28 73v191zM327 582h-217l-73 27c6 24 21 39 46 46h272zM109 564v-173l-54 -55l-19 19v236zM345 391v191l28 73c24 -7 39 -22 45 -46v-254l-18 -19zM109 264v-191l-27 -73
c-24 6 -40 21 -46 45v255l19 18z" />
    <glyph glyph-name="N" unicode="N" 
d="M109 264v-191l-27 -73c-24 6 -40 21 -46 45v255l19 18zM327 382h-63l-137 136v55h55l145 -146v-45zM400 318l18 -18v-255c-6 -24 -21 -39 -45 -45l-28 73v191zM345 382v191l28 72c24 -6 39 -21 45 -45v-255l-18 -18zM55 327l-19 18v255c6 24 22 39 46 45l27 -72v-191z
" />
    <glyph glyph-name="O" unicode="O" 
d="M327 582h-200l-36 36l36 37h200l37 -37zM345 391v191l28 27l45 -45v-209l-18 -19zM400 318l18 -18v-209l-45 -46l-28 28v191zM55 336l-19 19v209l46 45l27 -27v-191zM364 36l-37 -36h-200l-36 36l36 37h200zM109 264v-191l-27 -28l-46 46v209l19 18z" />
    <glyph glyph-name="P" unicode="P" 
d="M345 364l37 -37l-37 -36h-236l-36 36l36 37h236zM327 582h-218l-73 27v46h291l37 -37zM109 564v-173l-54 -55l-19 19v236zM345 391v191l28 27l45 -45v-209l-18 -19zM109 264v-191l-27 -73c-24 6 -40 21 -46 45v255l19 18z" />
    <glyph glyph-name="Q" unicode="Q" 
d="M400 318l18 -18v-218l-73 73v109zM336 0h-254c-24 6 -40 21 -46 45l73 28h155zM36 64v236l19 18l54 -54v-173zM327 582h-217l-73 27c6 24 21 39 46 46h272zM109 564v-173l-54 -55l-19 19v236zM345 391v191l28 73c24 -7 39 -22 45 -46v-254l-18 -19zM255 164h54l118 -119
v-54h-54l-118 118v55z" />
    <glyph glyph-name="R" unicode="R" 
d="M345 364l37 -37l-37 -36h-236l-36 36l36 37h236zM127 273h55l236 -237c-12 -24 -36 -36 -73 -36l-218 218v55zM109 264v-191l-27 -73c-24 6 -40 21 -46 45v255l19 18zM327 582h-217l-73 27c6 24 21 39 46 46h272zM345 391v191l28 73c24 -7 39 -22 45 -46v-254l-18 -19z
M109 564v-173l-54 -55l-19 19v236z" />
    <glyph glyph-name="S" unicode="S" 
d="M345 364l37 -37l-37 -36h-236l-36 36l36 37h236zM400 318l18 -18v-255c-6 -24 -21 -39 -45 -45l-28 73v191zM355 0h-273c-24 6 -40 21 -46 45l73 28h218zM109 564v-173l-54 -55l-19 19v236zM110 582l-73 27c6 24 21 39 46 46h290c24 -7 39 -22 45 -46l-73 -27h-235z" />
    <glyph glyph-name="T" unicode="T" 
d="M227 318l37 -36v-237c-6 -24 -22 -39 -46 -45l-27 73v209zM191 373v191h73v-191l-37 -37zM110 582l-73 27c6 24 21 39 46 46h290c24 -7 39 -22 45 -46l-73 -27h-235z" />
    <glyph glyph-name="U" unicode="U" 
d="M400 318l18 -18v-255c-6 -24 -21 -39 -45 -45l-28 73v191zM355 0h-273c-24 6 -40 21 -46 45l73 28h218zM36 64v236l19 18l54 -54v-173zM345 391v191l28 73c24 -7 39 -22 45 -46v-254l-18 -19zM55 327l-19 18v255c6 24 22 39 46 45l27 -72v-191z" />
    <glyph glyph-name="V" unicode="V" 
d="M55 327l-19 18v255c6 24 22 39 46 45l27 -72v-191zM345 382v191l28 72c24 -6 39 -21 45 -45v-255l-18 -18zM218 109v-109l-182 236v55l19 18l54 -54zM345 255l55 54l18 -18v-55l-182 -236v109z" />
    <glyph glyph-name="W" unicode="W" 
d="M264 91h-73v209l36 36l37 -36v-209zM345 391v191l28 73c24 -7 39 -22 45 -46v-254l-18 -19zM355 0h-272c-25 6 -40 21 -46 45l73 28h217zM36 64v236l19 18l54 -54v-173zM400 318l18 -18v-255c-6 -24 -21 -39 -45 -45l-28 73v191zM55 336l-19 19v254c6 24 22 39 46 46
l27 -73v-191z" />
    <glyph glyph-name="X" unicode="X" 
d="M236 318h41l140 -282c-12 -24 -36 -36 -72 -36l-109 220v98zM237 435l108 220c37 0 61 -13 73 -37l-140 -282h-41v99zM217 220l-108 -220c-36 0 -61 12 -73 36l140 282h41v-98zM218 336h-41l-140 282c12 24 37 37 73 37l108 -221v-98z" />
    <glyph glyph-name="Y" unicode="Y" 
d="M345 364l37 -37l-37 -36h-236l-36 36l36 37h236zM400 318l18 -18v-255c-6 -24 -21 -39 -45 -45l-28 73v191zM355 0h-273c-24 6 -40 21 -46 45l73 28h218zM109 591v-200l-54 -55l-19 19v263zM345 391v191l28 73c24 -7 39 -22 45 -46v-254l-18 -19z" />
    <glyph glyph-name="Z" unicode="Z" 
d="M382 0h-255l37 73h191zM291 582h-181l-73 27c6 24 21 39 46 46h244zM227 391l118 264c37 0 61 -13 73 -37l-136 -282h-55v55zM236 264l-127 -264c-36 0 -61 12 -73 36l146 282h54v-54z" />
    <glyph glyph-name="bracketleft" unicode="[" 
d="M36 64v236l19 18l54 -54v-173zM173 582h-63l-73 27c6 24 21 39 46 46h126l18 -19zM109 564v-173l-54 -55l-19 19v236zM227 18l-18 -18h-126c-25 6 -40 21 -46 45l73 28h63z" />
    <glyph glyph-name="backslash" unicode="\" 
d="M236 318h41l140 -282c-12 -24 -36 -36 -72 -36l-109 220v98zM218 336h-41l-140 282c12 24 37 37 73 37l108 -221v-98z" />
    <glyph glyph-name="bracketright" unicode="]" 
d="M400 318l18 -18v-255c-6 -24 -21 -39 -45 -45l-28 73v191zM327 582h-45l-55 54l18 19h110zM345 391v191l28 73c24 -7 39 -22 45 -46v-254l-18 -19zM355 0h-110l-18 18l55 55h45z" />
    <glyph glyph-name="asciicircum" unicode="^" 
d="M235 555v100l182 -182v-37l-35 -27zM72 409l-36 27v37l182 182l-1 -100z" />
    <glyph glyph-name="underscore" unicode="_" 
d="M345 73l72 -28c-6 -24 -21 -39 -45 -45h-290c-24 6 -40 21 -46 45l73 28h236z" />
    <glyph glyph-name="grave" unicode="`" 
d="M309 555v-37l-36 -9l-128 127l10 37h36z" />
    <glyph glyph-name="a" unicode="a" 
d="M345 364l37 -37l-37 -36h-236l-36 36l36 37h236zM400 318l18 -18v-255c-6 -24 -21 -39 -45 -45l-28 73v191zM327 582h-217l-73 27c6 24 21 39 46 46h272zM109 564v-173l-54 -55l-19 19v236zM345 391v191l28 73c24 -7 39 -22 45 -46v-254l-18 -19zM109 264v-191l-27 -73
c-24 6 -40 21 -46 45v255l19 18z" />
    <glyph glyph-name="b" unicode="b" 
d="M345 364l37 -37l-37 -36h-236l-36 36l36 37h236zM36 64v236l19 18l54 -54v-173zM327 582h-218l-73 27v46h291l37 -37zM109 564v-173l-54 -55l-19 19v236zM345 391v191l28 27l45 -45v-209l-18 -19zM400 318l18 -18v-209l-45 -46l-28 28v191zM363 36l-37 -36h-290v45l73 28
h217z" />
    <glyph glyph-name="c" unicode="c" 
d="M382 0h-300c-24 6 -40 21 -46 45l73 28h246zM36 64v236l19 18l54 -54v-173zM355 582h-245l-73 27c6 24 21 39 46 46h299zM109 564v-173l-54 -55l-19 19v236z" />
    <glyph glyph-name="d" unicode="d" 
d="M36 64v236l19 18l54 -54v-173zM327 582h-218l-73 27v46h291l37 -37zM109 564v-173l-54 -55l-19 19v236zM345 391v191l28 27l45 -45v-209l-18 -19zM400 318l18 -18v-209l-45 -46l-28 28v191zM363 36l-37 -36h-290v45l73 28h217z" />
    <glyph glyph-name="e" unicode="e" 
d="M345 364l37 -37l-37 -36h-236l-36 36l36 37h236zM382 0h-300c-24 6 -40 21 -46 45l73 28h246zM36 64v236l19 18l54 -54v-173zM355 582h-245l-73 27c6 24 21 39 46 46h299zM109 564v-173l-54 -55l-19 19v236z" />
    <glyph glyph-name="f" unicode="f" 
d="M345 364l37 -37l-37 -36h-236l-36 36l36 37h236zM355 582h-245l-73 27c6 24 21 39 46 46h299zM109 564v-173l-54 -55l-19 19v236zM109 264v-191l-27 -73c-24 6 -40 21 -46 45v255l19 18z" />
    <glyph glyph-name="g" unicode="g" 
d="M345 364l37 -37l-37 -36h-81l-37 36l37 37h81zM400 318l18 -18v-255c-6 -24 -21 -39 -45 -45l-28 73v191zM355 0h-273c-24 6 -40 21 -46 45l73 28h218zM36 64v236l19 18l54 -54v-173zM355 582h-245l-73 27c6 24 21 39 46 46h299zM109 564v-173l-54 -55l-19 19v236z" />
    <glyph glyph-name="h" unicode="h" 
d="M345 364l37 -37l-37 -36h-236l-36 36l36 37h236zM400 318l18 -18v-255c-6 -24 -21 -39 -45 -45l-28 73v191zM345 391v191l28 73c24 -7 39 -22 45 -46v-254l-18 -19zM109 264v-191l-27 -73c-24 6 -40 21 -46 45v255l19 18zM55 327l-19 18v255c6 24 22 39 46 45l27 -72
v-191z" />
    <glyph glyph-name="i" unicode="i" 
d="M182 391v191l27 73c24 -7 39 -22 46 -46v-254l-19 -19zM236 327l19 -18v-254c-7 -25 -22 -40 -46 -46l-27 73v191z" />
    <glyph glyph-name="j" unicode="j" 
d="M400 318l18 -18v-255c-6 -24 -21 -39 -45 -45l-28 73v191zM355 0h-273c-24 6 -40 21 -46 45l73 28h218zM36 64v236l19 18l54 -54v-173zM345 391v191l28 73c24 -7 39 -22 45 -46v-254l-18 -19z" />
    <glyph glyph-name="k" unicode="k" 
d="M345 364l37 -37l-37 -36h-236l-36 36l36 37h236zM400 318l18 -18v-255c-6 -24 -21 -39 -45 -45l-28 73v191zM127 436l218 219c37 0 61 -13 73 -37l-236 -236h-55v54zM109 264v-191l-27 -73c-24 6 -40 21 -46 45v255l19 18zM55 336l-19 19v254c6 24 22 39 46 46l27 -73
v-191z" />
    <glyph glyph-name="l" unicode="l" 
d="M109 264v-191l-27 -73c-24 6 -40 21 -46 45v255l19 18zM127 73h218l73 -28c-6 -24 -21 -39 -45 -45h-273zM55 336l-19 19v254c6 24 22 39 46 46l27 -73v-191z" />
    <glyph glyph-name="m" unicode="m" 
d="M264 355l-37 -37l-36 37v209h73v-209zM400 318l18 -18v-255c-6 -24 -21 -39 -45 -45l-28 73v191zM327 582h-217l-73 27c6 24 21 39 46 46h272zM109 564v-173l-54 -55l-19 19v236zM345 391v191l28 73c24 -7 39 -22 45 -46v-254l-18 -19zM109 264v-191l-27 -73
c-24 6 -40 21 -46 45v255l19 18z" />
    <glyph glyph-name="n" unicode="n" 
d="M109 264v-191l-27 -73c-24 6 -40 21 -46 45v255l19 18zM327 382h-63l-137 136v55h55l145 -146v-45zM400 318l18 -18v-255c-6 -24 -21 -39 -45 -45l-28 73v191zM345 382v191l28 72c24 -6 39 -21 45 -45v-255l-18 -18zM55 327l-19 18v255c6 24 22 39 46 45l27 -72v-191z
" />
    <glyph glyph-name="o" unicode="o" 
d="M327 582h-200l-36 36l36 37h200l37 -37zM345 391v191l28 27l45 -45v-209l-18 -19zM400 318l18 -18v-209l-45 -46l-28 28v191zM55 336l-19 19v209l46 45l27 -27v-191zM364 36l-37 -36h-200l-36 36l36 37h200zM109 264v-191l-27 -28l-46 46v209l19 18z" />
    <glyph glyph-name="p" unicode="p" 
d="M345 364l37 -37l-37 -36h-236l-36 36l36 37h236zM327 582h-218l-73 27v46h291l37 -37zM109 564v-173l-54 -55l-19 19v236zM345 391v191l28 27l45 -45v-209l-18 -19zM109 264v-191l-27 -73c-24 6 -40 21 -46 45v255l19 18z" />
    <glyph glyph-name="q" unicode="q" 
d="M400 318l18 -18v-218l-73 73v109zM336 0h-254c-24 6 -40 21 -46 45l73 28h155zM36 64v236l19 18l54 -54v-173zM327 582h-217l-73 27c6 24 21 39 46 46h272zM109 564v-173l-54 -55l-19 19v236zM345 391v191l28 73c24 -7 39 -22 45 -46v-254l-18 -19zM255 164h54l118 -119
v-54h-54l-118 118v55z" />
    <glyph glyph-name="r" unicode="r" 
d="M345 364l37 -37l-37 -36h-236l-36 36l36 37h236zM127 273h55l236 -237c-12 -24 -36 -36 -73 -36l-218 218v55zM109 264v-191l-27 -73c-24 6 -40 21 -46 45v255l19 18zM327 582h-217l-73 27c6 24 21 39 46 46h272zM345 391v191l28 73c24 -7 39 -22 45 -46v-254l-18 -19z
M109 564v-173l-54 -55l-19 19v236z" />
    <glyph glyph-name="s" unicode="s" 
d="M345 364l37 -37l-37 -36h-236l-36 36l36 37h236zM400 318l18 -18v-255c-6 -24 -21 -39 -45 -45l-28 73v191zM355 0h-273c-24 6 -40 21 -46 45l73 28h218zM109 564v-173l-54 -55l-19 19v236zM110 582l-73 27c6 24 21 39 46 46h290c24 -7 39 -22 45 -46l-73 -27h-235z" />
    <glyph glyph-name="t" unicode="t" 
d="M227 318l37 -36v-237c-6 -24 -22 -39 -46 -45l-27 73v209zM191 373v191h73v-191l-37 -37zM110 582l-73 27c6 24 21 39 46 46h290c24 -7 39 -22 45 -46l-73 -27h-235z" />
    <glyph glyph-name="u" unicode="u" 
d="M400 318l18 -18v-255c-6 -24 -21 -39 -45 -45l-28 73v191zM355 0h-273c-24 6 -40 21 -46 45l73 28h218zM36 64v236l19 18l54 -54v-173zM345 391v191l28 73c24 -7 39 -22 45 -46v-254l-18 -19zM55 327l-19 18v255c6 24 22 39 46 45l27 -72v-191z" />
    <glyph glyph-name="v" unicode="v" 
d="M55 327l-19 18v255c6 24 22 39 46 45l27 -72v-191zM345 382v191l28 72c24 -6 39 -21 45 -45v-255l-18 -18zM218 109v-109l-182 236v55l19 18l54 -54zM345 255l55 54l18 -18v-55l-182 -236v109z" />
    <glyph glyph-name="w" unicode="w" 
d="M264 91h-73v209l36 36l37 -36v-209zM345 391v191l28 73c24 -7 39 -22 45 -46v-254l-18 -19zM355 0h-272c-25 6 -40 21 -46 45l73 28h217zM36 64v236l19 18l54 -54v-173zM400 318l18 -18v-255c-6 -24 -21 -39 -45 -45l-28 73v191zM55 336l-19 19v254c6 24 22 39 46 46
l27 -73v-191z" />
    <glyph glyph-name="x" unicode="x" 
d="M236 318h41l140 -282c-12 -24 -36 -36 -72 -36l-109 220v98zM237 435l108 220c37 0 61 -13 73 -37l-140 -282h-41v99zM217 220l-108 -220c-36 0 -61 12 -73 36l140 282h41v-98zM218 336h-41l-140 282c12 24 37 37 73 37l108 -221v-98z" />
    <glyph glyph-name="y" unicode="y" 
d="M345 364l37 -37l-37 -36h-236l-36 36l36 37h236zM400 318l18 -18v-255c-6 -24 -21 -39 -45 -45l-28 73v191zM355 0h-273c-24 6 -40 21 -46 45l73 28h218zM109 591v-200l-54 -55l-19 19v263zM345 391v191l28 73c24 -7 39 -22 45 -46v-254l-18 -19z" />
    <glyph glyph-name="z" unicode="z" 
d="M382 0h-255l37 73h191zM291 582h-181l-73 27c6 24 21 39 46 46h244zM227 391l118 264c37 0 61 -13 73 -37l-136 -282h-55v55zM236 264l-127 -264c-36 0 -61 12 -73 36l146 282h54v-54z" />
    <glyph glyph-name="braceleft" unicode="{" 
d="M136 64v200l55 54l18 -18v-209zM273 582h-63l-73 27c6 24 21 39 46 46h126l18 -19zM209 564v-209l-18 -19l-55 55v200zM327 18l-18 -18h-126c-25 6 -40 21 -46 45l73 28h63zM127 364l37 -37l-37 -36h-63l-37 36l37 37h63z" />
    <glyph glyph-name="bar" unicode="|" 
d="M109 45c-6 -24 -21 -39 -45 -45l-28 73v509l28 73c24 -7 39 -22 45 -46v-564z" />
    <glyph glyph-name="braceright" unicode="}" 
d="M191 91v209l18 18l55 -54v-200zM73 636l18 19h126c25 -7 40 -22 46 -46l-73 -27h-63zM264 591v-200l-55 -55l-18 19v209zM127 73h63l73 -28c-6 -24 -21 -39 -46 -45h-126l-18 18zM336 364l37 -37l-37 -36h-63l-37 36l37 37h63z" />
    <glyph glyph-name="asciitilde" unicode="~" 
d="M245 436l37 -36l-37 -36h-36l-36 36l36 36h36zM100 435l36 -36l-36 -36h-36l-37 36l37 36h36zM391 436l36 -36l-36 -36h-36l-37 36l37 36h36zM173 491l36 -36l-36 -37h-37l-36 37l36 36h37zM318 373l37 -37l-37 -36h-36l-37 36l37 37h36z" />
    <glyph glyph-name="perthousand" unicode="&#x2030;" 
d="M208 363l-145 -145c-37 0 -54 17 -54 54l172 173h27v-82zM82 582h-9l-73 27c6 24 21 39 45 46h64zM73 564v-55l-28 -73c-24 6 -39 22 -45 46v109zM91 509h9l73 -27c-6 -24 -21 -40 -46 -46h-63zM100 527v55l27 73c25 -7 40 -22 46 -46v-109zM355 145h-10l-72 28
c6 24 21 39 45 45h64zM346 127v-54l-27 -73c-24 6 -39 21 -45 45v110zM364 73h9l72 -28c-6 -24 -21 -39 -45 -45h-64zM373 91v54l27 73c24 -6 39 -21 45 -45v-109zM164 91v54l27 73c24 -6 39 -21 45 -45v-109zM155 72h9l72 -27c-6 -25 -21 -40 -45 -46h-64zM136 127v-54
l-27 -73c-24 6 -39 21 -45 45v110zM145 145h-9l-72 28c6 24 21 39 45 45h64zM218 483l146 144c36 0 53 -17 53 -53l-172 -174l-27 1v82z" />
    <glyph glyph-name="quoteleft" unicode="&#x2018;" 
d="M273 473h-73v145l36 37l37 -37v-145z" />
    <glyph glyph-name="quoteright" unicode="&#x2019;" 
d="M273 509l-37 -36l-36 36v146h73v-146z" />
    <glyph glyph-name="quotedblleft" unicode="&#x201c;" 
d="M200 474h-73v145l37 36l36 -36v-145zM345 473h-72v145l36 37l36 -37v-145z" />
    <glyph glyph-name="quotedblright" unicode="&#x201d;" 
d="M200 509l-36 -36l-37 36v146h73v-146zM346 510l-36 -36l-36 36v145h72v-145z" />
    <glyph glyph-name="bullet" unicode="&#x2022;" 
d="M223 200c-74 0 -132 58 -132 132c0 73 58 132 132 132c72 0 132 -60 132 -132c0 -74 -59 -132 -132 -132z" />
    <glyph glyph-name="endash" unicode="&#x2013;" 
d="M391 364l36 -37l-36 -36h-327l-37 36l37 37h327z" />
    <glyph glyph-name="emdash" unicode="&#x2014;" 
d="M409 364l36 -37l-36 -36h-364l-36 36l36 37h364z" />
    <glyph glyph-name="copyright" unicode="&#xa9;" 
d="M373 0h-328c-24 6 -39 21 -45 45l73 28h272zM345 582h-271l-73 27c6 24 21 39 45 46h327zM73 91l-73 -27v527l73 -27v-473zM436 45c-6 -24 -21 -39 -45 -45l-27 73v509l27 73c24 -7 39 -22 45 -46v-564zM300 436h-118l-73 28c6 24 21 39 46 45h172zM182 418v-200l-27 -73
c-25 7 -40 22 -46 46v254zM200 218h55l72 -27c-6 -24 -21 -39 -45 -46h-109z" />
  </font>
</defs>
</svg>
